<mxfile host="app.diagrams.net" agent="Mozilla/5.0 (Macintosh; Intel Mac OS X 10_15_7) AppleWebKit/537.36 (KHTML, like Gecko) Chrome/139.0.0.0 Safari/537.36" version="27.0.6">
  <diagram name="第 1 页" id="noQwS5p6dQf9x69a5Cf3">
    <mxGraphModel dx="1234" dy="790" grid="1" gridSize="10" guides="1" tooltips="1" connect="1" arrows="1" fold="1" page="1" pageScale="1" pageWidth="827" pageHeight="1169" math="0" shadow="0">
      <root>
        <mxCell id="0" />
        <mxCell id="1" parent="0" />
        <mxCell id="ar3YNUGlTprMVFnXmkK3-5" style="edgeStyle=orthogonalEdgeStyle;rounded=0;orthogonalLoop=1;jettySize=auto;html=1;exitX=1;exitY=0.5;exitDx=0;exitDy=0;entryX=0;entryY=0.5;entryDx=0;entryDy=0;" edge="1" parent="1" source="ar3YNUGlTprMVFnXmkK3-1" target="ar3YNUGlTprMVFnXmkK3-3">
          <mxGeometry relative="1" as="geometry" />
        </mxCell>
        <mxCell id="ar3YNUGlTprMVFnXmkK3-1" value="飞机&lt;div&gt;北京-&amp;gt;美兰&lt;/div&gt;" style="rounded=0;whiteSpace=wrap;html=1;fillColor=#dae8fc;strokeColor=#6c8ebf;" vertex="1" parent="1">
          <mxGeometry x="210" y="215" width="120" height="50" as="geometry" />
        </mxCell>
        <mxCell id="ar3YNUGlTprMVFnXmkK3-4" style="edgeStyle=orthogonalEdgeStyle;rounded=0;orthogonalLoop=1;jettySize=auto;html=1;exitX=1;exitY=0.5;exitDx=0;exitDy=0;entryX=0;entryY=0.5;entryDx=0;entryDy=0;" edge="1" parent="1" source="ar3YNUGlTprMVFnXmkK3-2" target="ar3YNUGlTprMVFnXmkK3-1">
          <mxGeometry relative="1" as="geometry" />
        </mxCell>
        <mxCell id="ar3YNUGlTprMVFnXmkK3-2" value="27号" style="ellipse;whiteSpace=wrap;html=1;fillColor=#e1d5e7;strokeColor=#9673a6;" vertex="1" parent="1">
          <mxGeometry x="30" y="215" width="120" height="50" as="geometry" />
        </mxCell>
        <mxCell id="ar3YNUGlTprMVFnXmkK3-7" style="edgeStyle=orthogonalEdgeStyle;rounded=0;orthogonalLoop=1;jettySize=auto;html=1;exitX=1;exitY=0.5;exitDx=0;exitDy=0;entryX=0;entryY=0.5;entryDx=0;entryDy=0;" edge="1" parent="1" source="ar3YNUGlTprMVFnXmkK3-3" target="ar3YNUGlTprMVFnXmkK3-6">
          <mxGeometry relative="1" as="geometry" />
        </mxCell>
        <mxCell id="ar3YNUGlTprMVFnXmkK3-3" value="高铁&lt;br&gt;&lt;div&gt;美兰-&amp;gt;亚龙湾&lt;/div&gt;" style="rounded=0;whiteSpace=wrap;html=1;fillColor=#dae8fc;strokeColor=#6c8ebf;" vertex="1" parent="1">
          <mxGeometry x="390" y="215" width="120" height="50" as="geometry" />
        </mxCell>
        <mxCell id="ar3YNUGlTprMVFnXmkK3-11" style="edgeStyle=orthogonalEdgeStyle;rounded=0;orthogonalLoop=1;jettySize=auto;html=1;exitX=1;exitY=0.5;exitDx=0;exitDy=0;entryX=0;entryY=0.5;entryDx=0;entryDy=0;" edge="1" parent="1" source="ar3YNUGlTprMVFnXmkK3-6" target="ar3YNUGlTprMVFnXmkK3-10">
          <mxGeometry relative="1" as="geometry" />
        </mxCell>
        <mxCell id="ar3YNUGlTprMVFnXmkK3-6" value="酒店入住" style="rounded=0;whiteSpace=wrap;html=1;fillColor=#dae8fc;strokeColor=#6c8ebf;" vertex="1" parent="1">
          <mxGeometry x="570" y="215" width="120" height="50" as="geometry" />
        </mxCell>
        <mxCell id="ar3YNUGlTprMVFnXmkK3-8" value="大概中午12点多到" style="text;html=1;align=center;verticalAlign=middle;resizable=0;points=[];autosize=1;strokeColor=none;fillColor=none;" vertex="1" parent="1">
          <mxGeometry x="210" y="265" width="120" height="30" as="geometry" />
        </mxCell>
        <mxCell id="ar3YNUGlTprMVFnXmkK3-9" value="大概14点左右" style="text;html=1;align=center;verticalAlign=middle;resizable=0;points=[];autosize=1;strokeColor=none;fillColor=none;" vertex="1" parent="1">
          <mxGeometry x="400" y="265" width="100" height="30" as="geometry" />
        </mxCell>
        <mxCell id="ar3YNUGlTprMVFnXmkK3-15" style="edgeStyle=orthogonalEdgeStyle;rounded=0;orthogonalLoop=1;jettySize=auto;html=1;exitX=1;exitY=0.5;exitDx=0;exitDy=0;entryX=0;entryY=0.5;entryDx=0;entryDy=0;" edge="1" parent="1" source="ar3YNUGlTprMVFnXmkK3-10" target="ar3YNUGlTprMVFnXmkK3-14">
          <mxGeometry relative="1" as="geometry" />
        </mxCell>
        <mxCell id="ar3YNUGlTprMVFnXmkK3-10" value="吃饭" style="rounded=0;whiteSpace=wrap;html=1;fillColor=#ffe6cc;strokeColor=#d79b00;" vertex="1" parent="1">
          <mxGeometry x="740" y="215" width="120" height="50" as="geometry" />
        </mxCell>
        <mxCell id="ar3YNUGlTprMVFnXmkK3-12" value="提前准备泳衣、涉水鞋、手机防水袋、部分景点提前买票" style="text;html=1;align=center;verticalAlign=middle;resizable=0;points=[];autosize=1;strokeColor=none;fillColor=none;" vertex="1" parent="1">
          <mxGeometry x="30" y="140" width="320" height="30" as="geometry" />
        </mxCell>
        <mxCell id="ar3YNUGlTprMVFnXmkK3-13" value="打车" style="text;html=1;align=center;verticalAlign=middle;resizable=0;points=[];autosize=1;strokeColor=none;fillColor=none;" vertex="1" parent="1">
          <mxGeometry x="510" y="208" width="50" height="30" as="geometry" />
        </mxCell>
        <mxCell id="ar3YNUGlTprMVFnXmkK3-14" value="酒店附近溜达" style="rounded=0;whiteSpace=wrap;html=1;fillColor=#e1d5e7;strokeColor=#9673a6;" vertex="1" parent="1">
          <mxGeometry x="930" y="215" width="120" height="50" as="geometry" />
        </mxCell>
        <mxCell id="ar3YNUGlTprMVFnXmkK3-16" style="edgeStyle=orthogonalEdgeStyle;rounded=0;orthogonalLoop=1;jettySize=auto;html=1;exitX=1;exitY=0.5;exitDx=0;exitDy=0;entryX=0;entryY=0.5;entryDx=0;entryDy=0;" edge="1" parent="1" source="ar3YNUGlTprMVFnXmkK3-17" target="ar3YNUGlTprMVFnXmkK3-21">
          <mxGeometry relative="1" as="geometry" />
        </mxCell>
        <mxCell id="ar3YNUGlTprMVFnXmkK3-17" value="起床吃饭" style="rounded=0;whiteSpace=wrap;html=1;fillColor=#ffe6cc;strokeColor=#d79b00;" vertex="1" parent="1">
          <mxGeometry x="210" y="367" width="120" height="50" as="geometry" />
        </mxCell>
        <mxCell id="ar3YNUGlTprMVFnXmkK3-18" style="edgeStyle=orthogonalEdgeStyle;rounded=0;orthogonalLoop=1;jettySize=auto;html=1;exitX=1;exitY=0.5;exitDx=0;exitDy=0;entryX=0;entryY=0.5;entryDx=0;entryDy=0;" edge="1" parent="1" source="ar3YNUGlTprMVFnXmkK3-19" target="ar3YNUGlTprMVFnXmkK3-17">
          <mxGeometry relative="1" as="geometry" />
        </mxCell>
        <mxCell id="ar3YNUGlTprMVFnXmkK3-19" value="28号" style="ellipse;whiteSpace=wrap;html=1;fillColor=#e1d5e7;strokeColor=#9673a6;" vertex="1" parent="1">
          <mxGeometry x="30" y="367" width="120" height="50" as="geometry" />
        </mxCell>
        <mxCell id="ar3YNUGlTprMVFnXmkK3-20" style="edgeStyle=orthogonalEdgeStyle;rounded=0;orthogonalLoop=1;jettySize=auto;html=1;exitX=1;exitY=0.5;exitDx=0;exitDy=0;entryX=0;entryY=0.5;entryDx=0;entryDy=0;" edge="1" parent="1" source="ar3YNUGlTprMVFnXmkK3-21">
          <mxGeometry relative="1" as="geometry">
            <mxPoint x="570" y="392" as="targetPoint" />
          </mxGeometry>
        </mxCell>
        <mxCell id="ar3YNUGlTprMVFnXmkK3-21" value="亚特兰蒂斯水世界" style="rounded=0;whiteSpace=wrap;html=1;fillColor=#e1d5e7;strokeColor=#9673a6;" vertex="1" parent="1">
          <mxGeometry x="390" y="367" width="120" height="50" as="geometry" />
        </mxCell>
        <mxCell id="ar3YNUGlTprMVFnXmkK3-26" style="edgeStyle=orthogonalEdgeStyle;rounded=0;orthogonalLoop=1;jettySize=auto;html=1;exitX=1;exitY=0.5;exitDx=0;exitDy=0;entryX=0;entryY=0.5;entryDx=0;entryDy=0;" edge="1" parent="1" source="ar3YNUGlTprMVFnXmkK3-27" target="ar3YNUGlTprMVFnXmkK3-29">
          <mxGeometry relative="1" as="geometry" />
        </mxCell>
        <mxCell id="ar3YNUGlTprMVFnXmkK3-27" value="吃饭" style="rounded=0;whiteSpace=wrap;html=1;fillColor=#ffe6cc;strokeColor=#d79b00;" vertex="1" parent="1">
          <mxGeometry x="570" y="368" width="120" height="50" as="geometry" />
        </mxCell>
        <mxCell id="ar3YNUGlTprMVFnXmkK3-28" value="打车" style="text;html=1;align=center;verticalAlign=middle;resizable=0;points=[];autosize=1;strokeColor=none;fillColor=none;" vertex="1" parent="1">
          <mxGeometry x="510" y="360" width="50" height="30" as="geometry" />
        </mxCell>
        <mxCell id="ar3YNUGlTprMVFnXmkK3-29" value="回酒店" style="rounded=0;whiteSpace=wrap;html=1;fillColor=#dae8fc;strokeColor=#6c8ebf;" vertex="1" parent="1">
          <mxGeometry x="760" y="368" width="120" height="50" as="geometry" />
        </mxCell>
        <mxCell id="ar3YNUGlTprMVFnXmkK3-30" value="打车" style="text;html=1;align=center;verticalAlign=middle;resizable=0;points=[];autosize=1;strokeColor=none;fillColor=none;" vertex="1" parent="1">
          <mxGeometry x="335" y="368" width="50" height="30" as="geometry" />
        </mxCell>
        <mxCell id="ar3YNUGlTprMVFnXmkK3-31" value="亚龙湾海滩" style="text;html=1;align=center;verticalAlign=middle;resizable=0;points=[];autosize=1;strokeColor=none;fillColor=none;" vertex="1" parent="1">
          <mxGeometry x="950" y="265" width="80" height="30" as="geometry" />
        </mxCell>
        <mxCell id="ar3YNUGlTprMVFnXmkK3-32" value="林旺夜市&lt;div&gt;太阳湾公路&lt;/div&gt;" style="text;html=1;align=center;verticalAlign=middle;resizable=0;points=[];autosize=1;strokeColor=none;fillColor=none;" vertex="1" parent="1">
          <mxGeometry x="950" y="283" width="80" height="40" as="geometry" />
        </mxCell>
        <mxCell id="ar3YNUGlTprMVFnXmkK3-33" style="edgeStyle=orthogonalEdgeStyle;rounded=0;orthogonalLoop=1;jettySize=auto;html=1;exitX=1;exitY=0.5;exitDx=0;exitDy=0;entryX=0;entryY=0.5;entryDx=0;entryDy=0;" edge="1" parent="1" source="ar3YNUGlTprMVFnXmkK3-34" target="ar3YNUGlTprMVFnXmkK3-38">
          <mxGeometry relative="1" as="geometry" />
        </mxCell>
        <mxCell id="ar3YNUGlTprMVFnXmkK3-34" value="起床吃饭" style="rounded=0;whiteSpace=wrap;html=1;fillColor=#ffe6cc;strokeColor=#d79b00;" vertex="1" parent="1">
          <mxGeometry x="210" y="487" width="120" height="50" as="geometry" />
        </mxCell>
        <mxCell id="ar3YNUGlTprMVFnXmkK3-35" style="edgeStyle=orthogonalEdgeStyle;rounded=0;orthogonalLoop=1;jettySize=auto;html=1;exitX=1;exitY=0.5;exitDx=0;exitDy=0;entryX=0;entryY=0.5;entryDx=0;entryDy=0;" edge="1" parent="1" source="ar3YNUGlTprMVFnXmkK3-36" target="ar3YNUGlTprMVFnXmkK3-34">
          <mxGeometry relative="1" as="geometry" />
        </mxCell>
        <mxCell id="ar3YNUGlTprMVFnXmkK3-36" value="29号" style="ellipse;whiteSpace=wrap;html=1;fillColor=#e1d5e7;strokeColor=#9673a6;" vertex="1" parent="1">
          <mxGeometry x="30" y="487" width="120" height="50" as="geometry" />
        </mxCell>
        <mxCell id="ar3YNUGlTprMVFnXmkK3-37" style="edgeStyle=orthogonalEdgeStyle;rounded=0;orthogonalLoop=1;jettySize=auto;html=1;exitX=1;exitY=0.5;exitDx=0;exitDy=0;entryX=0;entryY=0.5;entryDx=0;entryDy=0;" edge="1" parent="1" source="ar3YNUGlTprMVFnXmkK3-38">
          <mxGeometry relative="1" as="geometry">
            <mxPoint x="570" y="512" as="targetPoint" />
          </mxGeometry>
        </mxCell>
        <mxCell id="ar3YNUGlTprMVFnXmkK3-38" value="热带森林公园" style="rounded=0;whiteSpace=wrap;html=1;fillColor=#e1d5e7;strokeColor=#9673a6;" vertex="1" parent="1">
          <mxGeometry x="390" y="487" width="120" height="50" as="geometry" />
        </mxCell>
        <mxCell id="ar3YNUGlTprMVFnXmkK3-39" style="edgeStyle=orthogonalEdgeStyle;rounded=0;orthogonalLoop=1;jettySize=auto;html=1;exitX=1;exitY=0.5;exitDx=0;exitDy=0;entryX=0;entryY=0.5;entryDx=0;entryDy=0;" edge="1" parent="1" source="ar3YNUGlTprMVFnXmkK3-40" target="ar3YNUGlTprMVFnXmkK3-42">
          <mxGeometry relative="1" as="geometry" />
        </mxCell>
        <mxCell id="ar3YNUGlTprMVFnXmkK3-40" value="吃饭" style="rounded=0;whiteSpace=wrap;html=1;fillColor=#ffe6cc;strokeColor=#d79b00;" vertex="1" parent="1">
          <mxGeometry x="570" y="488" width="120" height="50" as="geometry" />
        </mxCell>
        <mxCell id="ar3YNUGlTprMVFnXmkK3-41" value="打车" style="text;html=1;align=center;verticalAlign=middle;resizable=0;points=[];autosize=1;strokeColor=none;fillColor=none;" vertex="1" parent="1">
          <mxGeometry x="510" y="480" width="50" height="30" as="geometry" />
        </mxCell>
        <mxCell id="ar3YNUGlTprMVFnXmkK3-45" style="edgeStyle=orthogonalEdgeStyle;rounded=0;orthogonalLoop=1;jettySize=auto;html=1;exitX=1;exitY=0.5;exitDx=0;exitDy=0;entryX=0;entryY=0.5;entryDx=0;entryDy=0;" edge="1" parent="1" source="ar3YNUGlTprMVFnXmkK3-42" target="ar3YNUGlTprMVFnXmkK3-44">
          <mxGeometry relative="1" as="geometry" />
        </mxCell>
        <mxCell id="ar3YNUGlTprMVFnXmkK3-42" value="回酒店" style="rounded=0;whiteSpace=wrap;html=1;fillColor=#dae8fc;strokeColor=#6c8ebf;" vertex="1" parent="1">
          <mxGeometry x="760" y="488" width="120" height="50" as="geometry" />
        </mxCell>
        <mxCell id="ar3YNUGlTprMVFnXmkK3-43" value="打车" style="text;html=1;align=center;verticalAlign=middle;resizable=0;points=[];autosize=1;strokeColor=none;fillColor=none;" vertex="1" parent="1">
          <mxGeometry x="335" y="488" width="50" height="30" as="geometry" />
        </mxCell>
        <mxCell id="ar3YNUGlTprMVFnXmkK3-44" value="看疲劳程度&lt;div&gt;自由支配&lt;/div&gt;" style="rounded=0;whiteSpace=wrap;html=1;fillColor=#e1d5e7;strokeColor=#9673a6;" vertex="1" parent="1">
          <mxGeometry x="940" y="488" width="120" height="50" as="geometry" />
        </mxCell>
        <mxCell id="ar3YNUGlTprMVFnXmkK3-46" value="美食候选：夜市、海鲜、烧烤、椰子鸡、糟粕醋、文昌鸡" style="text;html=1;align=center;verticalAlign=middle;resizable=0;points=[];autosize=1;strokeColor=none;fillColor=none;" vertex="1" parent="1">
          <mxGeometry x="30" y="110" width="320" height="30" as="geometry" />
        </mxCell>
        <mxCell id="ar3YNUGlTprMVFnXmkK3-47" style="edgeStyle=orthogonalEdgeStyle;rounded=0;orthogonalLoop=1;jettySize=auto;html=1;exitX=1;exitY=0.5;exitDx=0;exitDy=0;entryX=0;entryY=0.5;entryDx=0;entryDy=0;" edge="1" parent="1" source="ar3YNUGlTprMVFnXmkK3-48" target="ar3YNUGlTprMVFnXmkK3-52">
          <mxGeometry relative="1" as="geometry" />
        </mxCell>
        <mxCell id="ar3YNUGlTprMVFnXmkK3-48" value="起床吃饭" style="rounded=0;whiteSpace=wrap;html=1;fillColor=#ffe6cc;strokeColor=#d79b00;" vertex="1" parent="1">
          <mxGeometry x="210" y="627" width="120" height="50" as="geometry" />
        </mxCell>
        <mxCell id="ar3YNUGlTprMVFnXmkK3-49" style="edgeStyle=orthogonalEdgeStyle;rounded=0;orthogonalLoop=1;jettySize=auto;html=1;exitX=1;exitY=0.5;exitDx=0;exitDy=0;entryX=0;entryY=0.5;entryDx=0;entryDy=0;" edge="1" parent="1" source="ar3YNUGlTprMVFnXmkK3-50" target="ar3YNUGlTprMVFnXmkK3-48">
          <mxGeometry relative="1" as="geometry" />
        </mxCell>
        <mxCell id="ar3YNUGlTprMVFnXmkK3-50" value="30号" style="ellipse;whiteSpace=wrap;html=1;fillColor=#e1d5e7;strokeColor=#9673a6;" vertex="1" parent="1">
          <mxGeometry x="30" y="627" width="120" height="50" as="geometry" />
        </mxCell>
        <mxCell id="ar3YNUGlTprMVFnXmkK3-51" style="edgeStyle=orthogonalEdgeStyle;rounded=0;orthogonalLoop=1;jettySize=auto;html=1;exitX=1;exitY=0.5;exitDx=0;exitDy=0;entryX=0;entryY=0.5;entryDx=0;entryDy=0;" edge="1" parent="1" source="ar3YNUGlTprMVFnXmkK3-52">
          <mxGeometry relative="1" as="geometry">
            <mxPoint x="570" y="652" as="targetPoint" />
          </mxGeometry>
        </mxCell>
        <mxCell id="ar3YNUGlTprMVFnXmkK3-52" value="" style="rounded=0;whiteSpace=wrap;html=1;fillColor=#e1d5e7;strokeColor=#9673a6;" vertex="1" parent="1">
          <mxGeometry x="390" y="627" width="120" height="50" as="geometry" />
        </mxCell>
        <mxCell id="ar3YNUGlTprMVFnXmkK3-53" style="edgeStyle=orthogonalEdgeStyle;rounded=0;orthogonalLoop=1;jettySize=auto;html=1;exitX=1;exitY=0.5;exitDx=0;exitDy=0;entryX=0;entryY=0.5;entryDx=0;entryDy=0;" edge="1" parent="1" source="ar3YNUGlTprMVFnXmkK3-54" target="ar3YNUGlTprMVFnXmkK3-57">
          <mxGeometry relative="1" as="geometry" />
        </mxCell>
        <mxCell id="ar3YNUGlTprMVFnXmkK3-54" value="" style="rounded=0;whiteSpace=wrap;html=1;fillColor=#ffe6cc;strokeColor=#d79b00;" vertex="1" parent="1">
          <mxGeometry x="570" y="628" width="120" height="50" as="geometry" />
        </mxCell>
        <mxCell id="ar3YNUGlTprMVFnXmkK3-55" value="打车" style="text;html=1;align=center;verticalAlign=middle;resizable=0;points=[];autosize=1;strokeColor=none;fillColor=none;" vertex="1" parent="1">
          <mxGeometry x="510" y="620" width="50" height="30" as="geometry" />
        </mxCell>
        <mxCell id="ar3YNUGlTprMVFnXmkK3-56" style="edgeStyle=orthogonalEdgeStyle;rounded=0;orthogonalLoop=1;jettySize=auto;html=1;exitX=1;exitY=0.5;exitDx=0;exitDy=0;entryX=0;entryY=0.5;entryDx=0;entryDy=0;" edge="1" parent="1" source="ar3YNUGlTprMVFnXmkK3-57" target="ar3YNUGlTprMVFnXmkK3-59">
          <mxGeometry relative="1" as="geometry" />
        </mxCell>
        <mxCell id="ar3YNUGlTprMVFnXmkK3-57" value="回酒店" style="rounded=0;whiteSpace=wrap;html=1;fillColor=#dae8fc;strokeColor=#6c8ebf;" vertex="1" parent="1">
          <mxGeometry x="760" y="628" width="120" height="50" as="geometry" />
        </mxCell>
        <mxCell id="ar3YNUGlTprMVFnXmkK3-58" value="打车" style="text;html=1;align=center;verticalAlign=middle;resizable=0;points=[];autosize=1;strokeColor=none;fillColor=none;" vertex="1" parent="1">
          <mxGeometry x="335" y="628" width="50" height="30" as="geometry" />
        </mxCell>
        <mxCell id="ar3YNUGlTprMVFnXmkK3-59" value="看疲劳程度&lt;div&gt;自由支配&lt;/div&gt;" style="rounded=0;whiteSpace=wrap;html=1;fillColor=#e1d5e7;strokeColor=#9673a6;" vertex="1" parent="1">
          <mxGeometry x="940" y="628" width="120" height="50" as="geometry" />
        </mxCell>
        <mxCell id="ar3YNUGlTprMVFnXmkK3-60" style="edgeStyle=orthogonalEdgeStyle;rounded=0;orthogonalLoop=1;jettySize=auto;html=1;exitX=1;exitY=0.5;exitDx=0;exitDy=0;entryX=0;entryY=0.5;entryDx=0;entryDy=0;" edge="1" parent="1" source="ar3YNUGlTprMVFnXmkK3-61" target="ar3YNUGlTprMVFnXmkK3-65">
          <mxGeometry relative="1" as="geometry" />
        </mxCell>
        <mxCell id="ar3YNUGlTprMVFnXmkK3-61" value="起床吃饭" style="rounded=0;whiteSpace=wrap;html=1;fillColor=#ffe6cc;strokeColor=#d79b00;" vertex="1" parent="1">
          <mxGeometry x="210" y="777" width="120" height="50" as="geometry" />
        </mxCell>
        <mxCell id="ar3YNUGlTprMVFnXmkK3-62" style="edgeStyle=orthogonalEdgeStyle;rounded=0;orthogonalLoop=1;jettySize=auto;html=1;exitX=1;exitY=0.5;exitDx=0;exitDy=0;entryX=0;entryY=0.5;entryDx=0;entryDy=0;" edge="1" parent="1" source="ar3YNUGlTprMVFnXmkK3-63" target="ar3YNUGlTprMVFnXmkK3-61">
          <mxGeometry relative="1" as="geometry" />
        </mxCell>
        <mxCell id="ar3YNUGlTprMVFnXmkK3-63" value="1号" style="ellipse;whiteSpace=wrap;html=1;fillColor=#e1d5e7;strokeColor=#9673a6;" vertex="1" parent="1">
          <mxGeometry x="30" y="777" width="120" height="50" as="geometry" />
        </mxCell>
        <mxCell id="ar3YNUGlTprMVFnXmkK3-64" style="edgeStyle=orthogonalEdgeStyle;rounded=0;orthogonalLoop=1;jettySize=auto;html=1;exitX=1;exitY=0.5;exitDx=0;exitDy=0;entryX=0;entryY=0.5;entryDx=0;entryDy=0;" edge="1" parent="1" source="ar3YNUGlTprMVFnXmkK3-65">
          <mxGeometry relative="1" as="geometry">
            <mxPoint x="570" y="802" as="targetPoint" />
          </mxGeometry>
        </mxCell>
        <mxCell id="ar3YNUGlTprMVFnXmkK3-65" value="去下一个酒店" style="rounded=0;whiteSpace=wrap;html=1;fillColor=#dae8fc;strokeColor=#6c8ebf;" vertex="1" parent="1">
          <mxGeometry x="390" y="777" width="120" height="50" as="geometry" />
        </mxCell>
        <mxCell id="ar3YNUGlTprMVFnXmkK3-68" value="打车" style="text;html=1;align=center;verticalAlign=middle;resizable=0;points=[];autosize=1;strokeColor=none;fillColor=none;" vertex="1" parent="1">
          <mxGeometry x="510" y="770" width="50" height="30" as="geometry" />
        </mxCell>
        <mxCell id="ar3YNUGlTprMVFnXmkK3-69" style="edgeStyle=orthogonalEdgeStyle;rounded=0;orthogonalLoop=1;jettySize=auto;html=1;exitX=1;exitY=0.5;exitDx=0;exitDy=0;entryX=0;entryY=0.5;entryDx=0;entryDy=0;" edge="1" parent="1" source="ar3YNUGlTprMVFnXmkK3-70" target="ar3YNUGlTprMVFnXmkK3-72">
          <mxGeometry relative="1" as="geometry" />
        </mxCell>
        <mxCell id="ar3YNUGlTprMVFnXmkK3-70" value="回酒店" style="rounded=0;whiteSpace=wrap;html=1;fillColor=#dae8fc;strokeColor=#6c8ebf;" vertex="1" parent="1">
          <mxGeometry x="1080" y="778" width="120" height="50" as="geometry" />
        </mxCell>
        <mxCell id="ar3YNUGlTprMVFnXmkK3-71" value="打车" style="text;html=1;align=center;verticalAlign=middle;resizable=0;points=[];autosize=1;strokeColor=none;fillColor=none;" vertex="1" parent="1">
          <mxGeometry x="335" y="778" width="50" height="30" as="geometry" />
        </mxCell>
        <mxCell id="ar3YNUGlTprMVFnXmkK3-72" value="看疲劳程度&lt;div&gt;自由支配&lt;/div&gt;" style="rounded=0;whiteSpace=wrap;html=1;fillColor=#e1d5e7;strokeColor=#9673a6;" vertex="1" parent="1">
          <mxGeometry x="1260" y="778" width="120" height="50" as="geometry" />
        </mxCell>
        <mxCell id="ar3YNUGlTprMVFnXmkK3-73" value="提前买票" style="text;html=1;align=center;verticalAlign=middle;resizable=0;points=[];autosize=1;strokeColor=none;fillColor=none;" vertex="1" parent="1">
          <mxGeometry x="405" y="678" width="70" height="30" as="geometry" />
        </mxCell>
        <mxCell id="ar3YNUGlTprMVFnXmkK3-74" value="提前买票" style="text;html=1;align=center;verticalAlign=middle;resizable=0;points=[];autosize=1;strokeColor=none;fillColor=none;" vertex="1" parent="1">
          <mxGeometry x="415" y="538" width="70" height="30" as="geometry" />
        </mxCell>
        <mxCell id="ar3YNUGlTprMVFnXmkK3-75" value="提前买票" style="text;html=1;align=center;verticalAlign=middle;resizable=0;points=[];autosize=1;strokeColor=none;fillColor=none;" vertex="1" parent="1">
          <mxGeometry x="414" y="417" width="70" height="30" as="geometry" />
        </mxCell>
        <mxCell id="ar3YNUGlTprMVFnXmkK3-76" value="林旺夜市&lt;div&gt;太阳湾公路&lt;/div&gt;" style="text;html=1;align=center;verticalAlign=middle;resizable=0;points=[];autosize=1;strokeColor=none;fillColor=none;" vertex="1" parent="1">
          <mxGeometry x="960" y="538" width="80" height="40" as="geometry" />
        </mxCell>
        <mxCell id="ar3YNUGlTprMVFnXmkK3-77" value="玫瑰花谷" style="text;html=1;align=center;verticalAlign=middle;resizable=0;points=[];autosize=1;strokeColor=none;fillColor=none;" vertex="1" parent="1">
          <mxGeometry x="965" y="570" width="70" height="30" as="geometry" />
        </mxCell>
        <mxCell id="ar3YNUGlTprMVFnXmkK3-78" value="百福岛" style="text;html=1;align=center;verticalAlign=middle;resizable=0;points=[];autosize=1;strokeColor=none;fillColor=none;" vertex="1" parent="1">
          <mxGeometry x="970" y="590" width="60" height="30" as="geometry" />
        </mxCell>
        <mxCell id="ar3YNUGlTprMVFnXmkK3-95" style="edgeStyle=orthogonalEdgeStyle;rounded=0;orthogonalLoop=1;jettySize=auto;html=1;exitX=1;exitY=0.5;exitDx=0;exitDy=0;entryX=0;entryY=0.5;entryDx=0;entryDy=0;" edge="1" parent="1" source="ar3YNUGlTprMVFnXmkK3-79" target="ar3YNUGlTprMVFnXmkK3-94">
          <mxGeometry relative="1" as="geometry" />
        </mxCell>
        <mxCell id="ar3YNUGlTprMVFnXmkK3-79" value="天涯小镇" style="rounded=0;whiteSpace=wrap;html=1;fillColor=#e1d5e7;strokeColor=#9673a6;" vertex="1" parent="1">
          <mxGeometry x="570" y="778" width="120" height="50" as="geometry" />
        </mxCell>
        <mxCell id="ar3YNUGlTprMVFnXmkK3-80" style="edgeStyle=orthogonalEdgeStyle;rounded=0;orthogonalLoop=1;jettySize=auto;html=1;exitX=1;exitY=0.5;exitDx=0;exitDy=0;entryX=0;entryY=0.5;entryDx=0;entryDy=0;" edge="1" parent="1" source="ar3YNUGlTprMVFnXmkK3-81" target="ar3YNUGlTprMVFnXmkK3-85">
          <mxGeometry relative="1" as="geometry" />
        </mxCell>
        <mxCell id="ar3YNUGlTprMVFnXmkK3-81" value="起床吃饭" style="rounded=0;whiteSpace=wrap;html=1;fillColor=#ffe6cc;strokeColor=#d79b00;" vertex="1" parent="1">
          <mxGeometry x="210" y="917" width="120" height="50" as="geometry" />
        </mxCell>
        <mxCell id="ar3YNUGlTprMVFnXmkK3-82" style="edgeStyle=orthogonalEdgeStyle;rounded=0;orthogonalLoop=1;jettySize=auto;html=1;exitX=1;exitY=0.5;exitDx=0;exitDy=0;entryX=0;entryY=0.5;entryDx=0;entryDy=0;" edge="1" parent="1" source="ar3YNUGlTprMVFnXmkK3-83" target="ar3YNUGlTprMVFnXmkK3-81">
          <mxGeometry relative="1" as="geometry" />
        </mxCell>
        <mxCell id="ar3YNUGlTprMVFnXmkK3-83" value="2号" style="ellipse;whiteSpace=wrap;html=1;fillColor=#e1d5e7;strokeColor=#9673a6;" vertex="1" parent="1">
          <mxGeometry x="30" y="917" width="120" height="50" as="geometry" />
        </mxCell>
        <mxCell id="ar3YNUGlTprMVFnXmkK3-84" style="edgeStyle=orthogonalEdgeStyle;rounded=0;orthogonalLoop=1;jettySize=auto;html=1;exitX=1;exitY=0.5;exitDx=0;exitDy=0;entryX=0;entryY=0.5;entryDx=0;entryDy=0;" edge="1" parent="1" source="ar3YNUGlTprMVFnXmkK3-85">
          <mxGeometry relative="1" as="geometry">
            <mxPoint x="570" y="942" as="targetPoint" />
          </mxGeometry>
        </mxCell>
        <mxCell id="ar3YNUGlTprMVFnXmkK3-85" value="西岛" style="rounded=0;whiteSpace=wrap;html=1;fillColor=#e1d5e7;strokeColor=#9673a6;" vertex="1" parent="1">
          <mxGeometry x="390" y="917" width="120" height="50" as="geometry" />
        </mxCell>
        <mxCell id="ar3YNUGlTprMVFnXmkK3-87" value="打车" style="text;html=1;align=center;verticalAlign=middle;resizable=0;points=[];autosize=1;strokeColor=none;fillColor=none;" vertex="1" parent="1">
          <mxGeometry x="510" y="910" width="50" height="30" as="geometry" />
        </mxCell>
        <mxCell id="ar3YNUGlTprMVFnXmkK3-88" style="edgeStyle=orthogonalEdgeStyle;rounded=0;orthogonalLoop=1;jettySize=auto;html=1;exitX=1;exitY=0.5;exitDx=0;exitDy=0;entryX=0;entryY=0.5;entryDx=0;entryDy=0;" edge="1" parent="1" source="ar3YNUGlTprMVFnXmkK3-89" target="ar3YNUGlTprMVFnXmkK3-91">
          <mxGeometry relative="1" as="geometry" />
        </mxCell>
        <mxCell id="ar3YNUGlTprMVFnXmkK3-89" value="回酒店" style="rounded=0;whiteSpace=wrap;html=1;fillColor=#dae8fc;strokeColor=#6c8ebf;" vertex="1" parent="1">
          <mxGeometry x="570" y="918" width="120" height="50" as="geometry" />
        </mxCell>
        <mxCell id="ar3YNUGlTprMVFnXmkK3-90" value="打车" style="text;html=1;align=center;verticalAlign=middle;resizable=0;points=[];autosize=1;strokeColor=none;fillColor=none;" vertex="1" parent="1">
          <mxGeometry x="335" y="918" width="50" height="30" as="geometry" />
        </mxCell>
        <mxCell id="ar3YNUGlTprMVFnXmkK3-91" value="看疲劳程度&lt;div&gt;自由支配&lt;/div&gt;" style="rounded=0;whiteSpace=wrap;html=1;fillColor=#e1d5e7;strokeColor=#9673a6;" vertex="1" parent="1">
          <mxGeometry x="750" y="918" width="120" height="50" as="geometry" />
        </mxCell>
        <mxCell id="ar3YNUGlTprMVFnXmkK3-93" value="提前买票" style="text;html=1;align=center;verticalAlign=middle;resizable=0;points=[];autosize=1;strokeColor=none;fillColor=none;" vertex="1" parent="1">
          <mxGeometry x="414" y="968" width="70" height="30" as="geometry" />
        </mxCell>
        <mxCell id="ar3YNUGlTprMVFnXmkK3-97" style="edgeStyle=orthogonalEdgeStyle;rounded=0;orthogonalLoop=1;jettySize=auto;html=1;exitX=1;exitY=0.5;exitDx=0;exitDy=0;" edge="1" parent="1" source="ar3YNUGlTprMVFnXmkK3-94" target="ar3YNUGlTprMVFnXmkK3-96">
          <mxGeometry relative="1" as="geometry" />
        </mxCell>
        <mxCell id="ar3YNUGlTprMVFnXmkK3-94" value="椰梦长廊" style="rounded=0;whiteSpace=wrap;html=1;fillColor=#e1d5e7;strokeColor=#9673a6;" vertex="1" parent="1">
          <mxGeometry x="750" y="778" width="120" height="50" as="geometry" />
        </mxCell>
        <mxCell id="ar3YNUGlTprMVFnXmkK3-98" style="edgeStyle=orthogonalEdgeStyle;rounded=0;orthogonalLoop=1;jettySize=auto;html=1;exitX=1;exitY=0.5;exitDx=0;exitDy=0;entryX=0;entryY=0.5;entryDx=0;entryDy=0;" edge="1" parent="1" source="ar3YNUGlTprMVFnXmkK3-96" target="ar3YNUGlTprMVFnXmkK3-70">
          <mxGeometry relative="1" as="geometry" />
        </mxCell>
        <mxCell id="ar3YNUGlTprMVFnXmkK3-96" value="忆恒夜市" style="rounded=0;whiteSpace=wrap;html=1;fillColor=#e1d5e7;strokeColor=#9673a6;" vertex="1" parent="1">
          <mxGeometry x="920" y="778" width="120" height="50" as="geometry" />
        </mxCell>
      </root>
    </mxGraphModel>
  </diagram>
</mxfile>
